<svg xmlns="http://www.w3.org/2000/svg" version="1.1" xmlns:xlink="http://www.w3.org/1999/xlink" width="2000" height="153" viewBox="0 0 2000 153"><svg xml:space="preserve" width="2000" height="153" data-version="2" data-id="lg_GFHVqMarrlg8DJm3Fq" viewBox="0 0 590 153" x="0" y="0"><rect width="100%" height="100%" fill="transparent"></rect><path fill="#abddd9" d="M84.68 86.61q-7.67 0-15.01-.84-7.35-.85-14.24-2.54l7.28-21.45q4.94 1.3 10.66 2.15 5.72.84 10.79.84 4.16 0 7.28-.19 3.12-.2 5.98-.59l1.04-6.5-10.79-1.04q-12.74-1.3-17.68-5.78-4.94-4.49-4.94-12.29 0-3.51.78-7.8 2.08-11.05 6.05-17.42 3.96-6.37 11.37-9.03 7.41-2.67 19.63-2.67 7.15 0 14.04.78 6.89.78 13.26 2.47l-6.76 20.8q-5.07-.91-9.62-1.43-4.55-.52-10.14-.52-2.99 0-5.07.13t-5.07.52l-1.04 6.37 8.71.91q9.36.91 14.69 3.58 5.33 2.66 7.54 6.63 2.21 3.96 2.21 9.16 0 1.56-.19 3.19-.2 1.62-.46 3.44-1.82 10.53-5.85 16.51-4.03 5.98-9.49 8.65-5.46 2.66-11.89 3.31-6.44.65-13.07.65M69.73 8.74 19.55 3.41h55.9q-1.69 1.04-3.05 2.41-1.37 1.36-2.67 2.92m-5.98 12.87L9.8 15.89h55.9Zm-2.47 12.61L6.16 28.37h56.03q-.13.39-.19.78-.07.39-.07.78-.13.91-.32 1.95-.2 1.04-.33 2.34m1.04 12.48L7.33 40.85h53.95q.13 1.69.33 3.06.19 1.36.71 2.79m17.16 12.48-68.77-5.85h56.03q4.29 4.16 12.74 5.85M55.17 71.53 8.5 65.81h48.62Zm-4.16 12.61L6.29 78.42h46.67Z"></path><rect width="124.02" height="85.15" x="-62.01" y="-42.58" fill="none" rx="0" ry="0" transform="translate(68.67 44.53)"></rect><path fill="#abddd9" d="M183.22 86.61q-16.9 0-23.72-6.63-6.83-6.63-6.83-19.63 0-3.64.46-7.67.45-4.03 1.23-8.58 2.47-14.17 7.28-23.59 4.81-9.43 13.52-14.24 8.71-4.81 23.01-4.81 16.9 0 23.73 6.57 6.82 6.56 6.82 19.69 0 5.33-.84 12.22-.85 6.89-2.86 14.04-2.02 7.15-5.4 13.52-3.38 6.37-8.45 10.92-5.2 4.55-12.09 6.37-6.89 1.82-15.86 1.82M166.06 7.7l-39.78-4.29h45.63q-1.56.91-2.99 1.95-1.43 1.04-2.86 2.34m-9.1 13.39-48.62-5.2h51.22q-.65 1.3-1.3 2.54-.65 1.23-1.3 2.66m20.28 43.29h10.27q4.29 0 7.09-1.04 2.79-1.04 3.7-5.85l5.98-33.8h-10.4q-4.29 0-7.02 1.04-2.73 1.04-3.64 5.85ZM152.67 33.7l-50.44-5.33h52Zm-2.47 12.61-51.09-5.46h52l-.39 2.6q-.13.78-.26 1.5-.13.71-.26 1.36m-1.3 12.48-51.22-5.46h51.61q-.39 2.86-.39 5.46m1.04 12.48-50.57-5.46h49.66q.26 1.43.46 2.8.19 1.36.45 2.66m6.89 11.96-44.98-4.81h41.08q1.69 2.99 3.9 4.81"></path><rect width="131.04" height="85.15" x="-65.52" y="-42.58" fill="none" rx="0" ry="0" transform="translate(163.7 44.53)"></rect><path fill="#abddd9" d="M283.58 86.61q-16.9 0-23.72-6.56-6.83-6.57-6.83-19.44 0-3.64.52-7.73.52-4.1 1.3-8.78 2.47-14.17 7.15-23.59 4.68-9.43 13.39-14.24 8.71-4.81 23.14-4.81 2.86 0 6.76.39t7.61 1.17q3.7.78 5.65 1.82l-7.28 19.89q-3.64-.91-7.8-1.36-4.16-.46-6.76-.46-5.98 0-9.1 1.17-3.12 1.17-3.77 5.33l-5.98 34.06q2.6.52 5.01.78 2.4.26 4.61.26 4.94 0 10.08-.84 5.13-.85 9.16-2.28l-2.08 21.84q-4.55 1.82-9.55 2.6-5.01.78-11.51.78M266.29 7.7l-39.78-4.29h45.63q-1.56.91-2.99 1.95-1.43 1.04-2.86 2.34m-9.1 13.39-48.62-5.2h51.22q-.65 1.3-1.3 2.54-.65 1.23-1.3 2.66M252.9 33.7l-50.44-5.33h52Zm-2.47 12.61-51.09-5.46h52l-.39 2.6q-.13.78-.26 1.5-.13.71-.26 1.36m-1.3 12.48-51.22-5.46h51.61q-.39 2.86-.39 5.46m1.04 12.48-50.57-5.46h49.66q.26 1.43.46 2.8.19 1.36.45 2.66m6.89 11.96-44.98-4.81h41.08q1.69 2.99 3.9 4.81"></path><rect width="120.64" height="85.15" x="-60.32" y="-42.58" fill="none" rx="0" ry="0" transform="translate(258.73 44.53)"></rect><path fill="#abddd9" d="M366.65 86.61q-16.9 0-23.72-6.56-6.83-6.57-6.83-19.44 0-3.64.52-7.73.52-4.1 1.3-8.78 2.47-14.17 7.15-23.59 4.68-9.43 13.39-14.24 8.71-4.81 23.14-4.81 2.86 0 6.76.39t7.61 1.17q3.7.78 5.65 1.82l-7.28 19.89q-3.64-.91-7.8-1.36-4.16-.46-6.76-.46-5.98 0-9.1 1.17-3.12 1.17-3.77 5.33l-5.98 34.06q2.6.52 5.01.78 2.4.26 4.61.26 4.94 0 10.08-.84 5.13-.85 9.16-2.28l-2.08 21.84q-4.55 1.82-9.55 2.6-5.01.78-11.51.78M349.36 7.7l-39.78-4.29h45.63q-1.56.91-2.99 1.95-1.43 1.04-2.86 2.34m-9.1 13.39-48.62-5.2h51.22q-.65 1.3-1.3 2.54-.65 1.23-1.3 2.66m-4.29 12.61-50.44-5.33h52Zm-2.47 12.61-51.09-5.46h52l-.39 2.6q-.13.78-.26 1.5-.13.71-.26 1.36m-1.3 12.48-51.22-5.46h51.61q-.39 2.86-.39 5.46m1.04 12.48-50.57-5.46h49.66q.26 1.43.46 2.8.19 1.36.45 2.66m6.89 11.96-44.98-4.81h41.08q1.69 2.99 3.9 4.81"></path><rect width="120.64" height="85.15" x="-60.32" y="-42.58" fill="none" rx="0" ry="0" transform="translate(341.8 44.53)"></rect><path fill="#abddd9" d="m418.65 84.66 14.3-81.25h54.34l-6.76 20.8h-26.65l-1.82 10.92h24.7l-3.38 18.85h-24.7l-1.69 9.88h30.29l-3.64 20.8Zm9.23-75.4-54.99-5.85h56.03Zm-2.08 12.48-55.12-5.85h56.03Zm-2.21 12.48-55.12-5.85h56.16Zm-2.21 12.48-55.12-5.85h56.16Zm-2.21 12.48-55.12-5.85h56.16Zm-2.21 12.48-55.12-5.85H418Zm-2.21 12.61-55.12-5.85h56.16Z"></path><rect width="127.66" height="81.25" x="-63.83" y="-40.63" fill="none" rx="0" ry="0" transform="translate(423.96 44.53)"></rect><path fill="#abddd9" d="m507.31 84.66 14.3-81.25h39q8.45 0 13.33 2.6 4.87 2.6 6.89 7.09 2.01 4.48 2.01 10.2 0 3.51-.71 8.32-.72 4.81-2.54 9.82-1.82 5-5.13 9.29-3.32 4.29-8.39 6.89l8.58 27.04h-27.17l-5.98-24.18h-5.33l-4.16 24.18Zm9.23-75.4-54.99-5.85h56.03Zm-2.21 12.48-54.99-5.85h56.03Zm25.35 18.72h5.72q3.77 0 6.37-.84 2.6-.85 3.25-4.62.65-3.25.85-4.94.19-1.69.19-1.82 0-2.86-2.4-3.44-2.41-.59-6.18-.59h-4.94Zm-27.56-6.24-54.99-5.85h56.03Zm-2.21 12.48-54.99-5.85h56.03Zm-2.08 12.48-55.12-5.85h56.16Zm-2.21 12.48-55.12-5.85h56.16Zm-2.21 12.61-55.12-5.85h56.16Z"></path><rect width="134.55" height="81.25" x="-67.28" y="-40.63" fill="none" rx="0" ry="0" transform="translate(516.07 44.53)"></rect><path fill="#abddd9" d="M168.3 123.51v22.32h-3.41l-7.25-18.85v18.85h-2.39v-22.32h3.51l7.22 18.57v-18.57Z"></path><rect width="13.05" height="22.32" x="-6.53" y="-11.16" fill="none" rx="0" ry="0" transform="translate(162.28 135.17)"></rect><path fill="#abddd9" d="M183.8 135.51h-7.28v8.21h8.21v2.11h-10.85v-22.32h10.85v2.11h-8.21v7.84h7.28Z"></path><rect width="10.85" height="22.32" x="-5.42" y="-11.16" fill="none" rx="0" ry="0" transform="translate(179.8 135.17)"></rect><path fill="#abddd9" d="m209.35 123.51-3.72 22.32h-3.16l-3.94-16.62-4.06 16.62h-3.38l-3.72-22.32h2.7l2.94 19.56 3.94-16.68h3.38l3.69 16.62 2.91-19.5Z"></path><rect width="21.98" height="22.32" x="-10.99" y="-11.16" fill="none" rx="0" ry="0" transform="translate(198.86 135.17)"></rect><path fill="#abddd9" d="m234.98 123.51-6.26 13.39v8.93h-2.6v-8.93l-6.39-13.39h2.89l4.86 10.66 4.93-10.66Z"></path><rect width="15.25" height="22.32" x="-7.63" y="-11.16" fill="none" rx="0" ry="0" transform="translate(227.85 135.17)"></rect><path fill="#abddd9" d="M236.22 134.67q0-3.25.69-5.47.68-2.22 1.79-3.58 1.12-1.37 2.56-1.97 1.44-.6 2.99-.6 1.55 0 2.99.6 1.45.6 2.56 1.97 1.12 1.36 1.8 3.58.68 2.22.68 5.47 0 3.26-.68 5.47-.68 2.22-1.8 3.58-1.11 1.37-2.57 1.97-1.46.61-2.98.61-1.55 0-2.99-.61-1.44-.6-2.56-1.97-1.11-1.36-1.79-3.58-.69-2.21-.69-5.47m2.7 0q0 4.71 1.33 7.16 1.34 2.45 4 2.45 2.67 0 4-2.45 1.34-2.45 1.34-7.16t-1.34-7.16q-1.33-2.45-4-2.45-2.66 0-4 2.45-1.33 2.45-1.33 7.16"></path><rect width="16.06" height="23.25" x="-8.03" y="-11.63" fill="none" rx="0" ry="0" transform="translate(244.75 135.18)"></rect><path fill="#abddd9" d="m268.12 145.83-4.99-8.74h-3.25v8.74h-2.64v-22.32h4.65q3.63 0 5.68 1.66 2.04 1.66 2.04 5.22 0 1.27-.31 2.25t-.84 1.72q-.52.74-1.24 1.27-.71.53-1.51.87l5.54 9.33Zm-8.24-20.3v9.54h2.07q2.42 0 3.69-1.16t1.27-3.52q0-2.35-1.14-3.61-1.15-1.25-3.91-1.25Z"></path><rect width="14.01" height="22.32" x="-7" y="-11.16" fill="none" rx="0" ry="0" transform="translate(264.75 135.17)"></rect><path fill="#abddd9" d="m284.86 145.83-7.72-10.38v10.38h-2.63v-22.32h2.63v9.73l7.01-9.73h2.95l-7.79 10.63 8.78 11.69Z"></path><rect width="13.58" height="22.32" x="-6.79" y="-11.16" fill="none" rx="0" ry="0" transform="translate(281.8 135.17)"></rect><path fill="#abddd9" d="M314.31 142.14q-.86 1.86-2.38 3.01-1.52 1.15-4 1.15-1.24 0-2.62-.48-1.38-.49-2.56-1.79-1.18-1.3-1.95-3.56-.78-2.27-.78-5.8 0-3.47.75-5.73.74-2.27 1.9-3.57 1.17-1.3 2.56-1.81 1.4-.51 2.73-.51 1.21 0 2.18.31.98.31 1.72.82.75.51 1.29 1.19.54.68.88 1.43l-2.32.9q-.5-1.28-1.38-1.93-.88-.65-2.37-.65-1.06 0-2 .45-.95.45-1.66 1.55t-1.13 2.93q-.42 1.83-.42 4.62 0 2.76.43 4.59.44 1.83 1.17 2.91.73 1.09 1.67 1.55.95.47 1.97.47 1.7 0 2.6-.85.9-.86 1.46-2.16Z"></path><rect width="14.29" height="23.25" x="-7.14" y="-11.63" fill="none" rx="0" ry="0" transform="translate(307.67 135.18)"></rect><path fill="#abddd9" d="M321.32 123.51v22.32h-2.64v-22.32Z"></path><rect width="2.64" height="22.32" x="-1.32" y="-11.16" fill="none" rx="0" ry="0" transform="translate(320.5 135.17)"></rect><path fill="#abddd9" d="M338.21 125.8h-5.45v20.03h-2.64V125.8h-5.39v-2.29h13.48Z"></path><rect width="13.48" height="22.32" x="-6.74" y="-11.16" fill="none" rx="0" ry="0" transform="translate(331.97 135.17)"></rect><path fill="#abddd9" d="m354.4 123.51-6.27 13.39v8.93h-2.6v-8.93l-6.39-13.39h2.89l4.86 10.66 4.93-10.66Z"></path><rect width="15.26" height="22.32" x="-7.63" y="-11.16" fill="none" rx="0" ry="0" transform="translate(347.27 135.17)"></rect><path fill="#abddd9" d="M355.17 150.54h-1.73l.8-4.71v-3.1h3.1v3.07Z"></path><rect width="3.9" height="7.81" x="-1.95" y="-3.9" fill="none" rx="0" ry="0" transform="translate(355.89 147.13)"></rect><path fill="#abddd9" d="M370.98 128.63q.78-2.27 2.39-3.54t4.06-1.27q1.21 0 2.28.33 1.07.32 1.87 1 .81.69 1.27 1.76.47 1.06.47 2.55 0 .96-.22 1.86-.21.9-.7 1.85-.48.94-1.27 2.01-.79 1.07-1.9 2.37l-5.21 6.08h9.02v2.2h-11.78v-2.45l6.39-7.59q.83-1.03 1.44-1.83.6-.81.97-1.54.38-.73.55-1.42.17-.7.17-1.54 0-1.67-.81-2.66-.8-1-2.66-1-1.49 0-2.52.9-1.02.9-1.45 2.58Z"></path><rect width="12.34" height="22.01" x="-6.17" y="-11.01" fill="none" rx="0" ry="0" transform="translate(377.65 135.32)"></rect><path fill="#abddd9" d="M389.8 135.17q0 2.54.28 4.27.28 1.74.8 2.79.53 1.06 1.27 1.51.75.45 1.68.45.93 0 1.67-.45.75-.45 1.27-1.51.53-1.05.81-2.79.28-1.73.28-4.27 0-2.55-.28-4.28-.28-1.74-.81-2.81-.52-1.07-1.27-1.53-.74-.47-1.67-.47-.93 0-1.68.47-.74.46-1.27 1.53-.52 1.07-.8 2.81-.28 1.73-.28 4.28m10.6 0q0 3-.46 5.1-.47 2.09-1.32 3.39-.85 1.3-2.08 1.89-1.22.59-2.71.59t-2.71-.54q-1.23-.54-2.08-1.82-.85-1.27-1.32-3.37-.46-2.11-.46-5.24 0-3.01.46-5.12.47-2.11 1.32-3.42.85-1.32 2.08-1.91 1.22-.59 2.71-.59t2.71.56q1.23.56 2.08 1.84.85 1.29 1.32 3.4.46 2.11.46 5.24"></path><rect width="13.14" height="22.01" x="-6.57" y="-11.01" fill="none" rx="0" ry="0" transform="translate(394.33 135.63)"></rect><path fill="#abddd9" d="M404.46 128.63q.78-2.27 2.39-3.54t4.06-1.27q1.21 0 2.28.33 1.07.32 1.87 1 .81.69 1.27 1.76.47 1.06.47 2.55 0 .96-.22 1.86-.21.9-.7 1.85-.48.94-1.27 2.01-.79 1.07-1.9 2.37l-5.21 6.08h9.02v2.2h-11.78v-2.45l6.39-7.59q.83-1.03 1.44-1.83.6-.81.97-1.54.38-.73.55-1.42.17-.7.17-1.54 0-1.67-.81-2.66-.8-1-2.66-1-1.49 0-2.52.9-1.02.9-1.45 2.58Z"></path><rect width="12.34" height="22.01" x="-6.17" y="-11.01" fill="none" rx="0" ry="0" transform="translate(411.13 135.32)"></rect><path fill="#abddd9" d="M423.4 141.86q.37.93 1.24 1.61.87.69 2.23.69.59 0 1.31-.24.71-.23 1.31-.83.61-.61 1.01-1.66.4-1.06.4-2.73 0-1.39-.27-2.36-.28-.96-.78-1.53-.5-.57-1.16-.84-.67-.26-1.44-.26-.75 0-1.58.31-.84.31-1.68 1.18l-2.04-.22.58-10.85h9.74v1.98h-7.5l-.38 6.92q.72-.5 1.6-.82.88-.33 1.91-.33 1.11 0 2.12.33 1.01.32 1.78 1.11.78.79 1.23 2.13.45 1.33.45 3.37 0 1.62-.48 2.95t-1.35 2.31q-.87.98-2.09 1.52-1.23.54-2.72.54-2.17 0-3.55-.93t-2.09-2.42Z"></path><rect width="12.28" height="22.01" x="-6.14" y="-11.01" fill="none" rx="0" ry="0" transform="translate(427.84 135.63)"></rect></svg></svg>